<svg preserveAspectRatio="none" width="100%" height="100%" overflow="visible" style="display: block;" viewBox="0 0 60 60" fill="none" xmlns="http://www.w3.org/2000/svg">
<g id="Premiere">
<rect width="60" height="60" rx="16" fill="var(--fill-0, #C9C0BB)" fill-opacity="0.5"/>
<g id="Vector">
<path d="M13.8 42.7851V17.2223C13.8 17.0484 13.871 16.9491 14.0369 16.9491C16.4856 16.9491 18.9332 16.8 21.3825 16.8C25.3569 16.8 29.6603 18.1891 31.1688 22.4392C31.5242 23.4826 31.7138 24.5508 31.7138 25.6687C31.7138 27.8051 31.2398 29.569 30.292 30.9601C27.6444 34.8462 23.0554 34.7858 18.9419 34.7858V42.7602C18.974 42.9963 18.7772 43.108 18.5864 43.108H14.0843C13.8947 43.108 13.8 43.0087 13.8 42.7851ZM18.9656 21.7436V30.0906C20.5966 30.2128 22.3034 30.226 23.8705 29.6932C25.6006 29.183 26.5481 27.6521 26.5481 25.8178C26.5962 24.2547 25.763 22.7549 24.3445 22.1908C22.7962 21.5327 20.6369 21.4933 18.9656 21.7436Z" fill="#6D6D71"/>
<path d="M34.9258 23.3227H39.0842C39.3135 23.3248 39.5194 23.4908 39.5801 23.7227C39.8849 24.4321 39.9224 25.2875 39.9235 26.0534C40.6366 25.1829 41.4966 24.4575 42.4604 23.9137C43.4941 23.3004 44.666 22.9896 45.8535 23.0137C46.0506 22.9842 46.2251 23.1671 46.197 23.3737V28.2132C46.197 28.4001 46.0693 28.4932 45.8155 28.4932C44.0554 28.3659 41.3151 28.8018 40.0361 30.253V42.8366C40.0361 43.0765 39.9344 43.1965 39.7309 43.1965H35.2692C35.05 43.2295 34.8567 43.0227 34.8876 42.7965V29.1331C34.8876 27.3023 34.9255 25.4163 34.6588 23.6027C34.6177 23.4358 34.7701 23.2806 34.9258 23.3227Z" fill="#6D6D71"/>
</g>
</g>
</svg>
