<svg preserveAspectRatio="none" width="100%" height="100%" overflow="visible" style="display: block;" viewBox="0 0 18.9997 32.9998" fill="none" xmlns="http://www.w3.org/2000/svg">
<path id="Union" fill-rule="evenodd" clip-rule="evenodd" d="M0.729174 0.724501C1.7004 -0.241582 3.27372 -0.241418 4.2448 0.724501L18.2741 14.6933L18.2927 14.7128L18.4362 14.8729L18.4538 14.8925C18.8292 15.3578 19.006 15.9242 18.9987 16.4784V16.496L18.9997 16.5399C18.9994 16.5477 18.9973 16.5556 18.9968 16.5634C18.9943 17.1866 18.7609 17.8212 18.2741 18.3065L4.24578 32.2753C3.33461 33.1823 1.89427 33.2366 0.91765 32.4442C0.911734 32.4394 0.905757 32.4337 0.900072 32.4286L0.748705 32.2938C0.742226 32.288 0.735354 32.2814 0.729174 32.2753C-0.243019 31.307 -0.243097 29.7358 0.729174 28.7675L11.3639 18.1786L12.9977 16.5194L11.4714 14.9286L0.729174 4.23231C-0.2426 3.26417 -0.243193 1.69291 0.729174 0.724501ZM3.71746 32.0731C3.72844 32.0645 3.74082 32.0576 3.75163 32.0487L3.77214 32.0292C3.75419 32.0443 3.73581 32.0588 3.71746 32.0731Z" fill="var(--fill-0, #51473F)" fill-opacity="0.5"/>
</svg>
