<svg preserveAspectRatio="none" width="100%" height="100%" overflow="visible" style="display: block;" viewBox="0 0 60 60" fill="none" xmlns="http://www.w3.org/2000/svg">
<g id="After effect">
<rect width="60" height="60" rx="16" fill="var(--fill-0, #C9C0BB)" fill-opacity="0.5"/>
<g id="Vector">
<path d="M25.1699 36.5196H16.1627L14.33 42.3301C14.2792 42.5456 14.0794 42.6982 13.8621 42.6876H9.30003C9.03987 42.6876 8.94888 42.542 9.02708 42.2507L16.8255 19.4653C16.9035 19.227 16.9815 18.994 17.0595 18.6892C17.1615 18.1592 17.2137 17.6206 17.2155 17.0805C17.1931 16.9209 17.3318 16.7797 17.4884 16.8024H23.6881C23.8698 16.8024 23.9737 16.8686 24.0001 17.0011L32.8514 42.2904C32.9294 42.5554 32.8513 42.6878 32.6174 42.6876H27.5484C27.3706 42.7077 27.2008 42.5866 27.1585 42.4096L25.1699 36.5196ZM17.5664 31.6203H23.7271C22.715 28.1848 21.5726 24.7945 20.6468 21.3322C19.5976 24.9237 18.6289 28.2544 17.5664 31.6203Z" fill="#6D6D71"/>
<path d="M39.4344 34.2759C39.7928 37.2263 42.2872 38.633 45.0493 38.573C46.6068 38.5426 48.2713 38.3025 49.7266 37.7175C49.8563 37.612 49.9216 37.6778 49.9216 37.9161V41.6897C49.9339 41.8861 49.8513 42.0614 49.6875 42.1664C47.8788 42.9826 45.8023 43.2286 43.8405 43.1974C37.991 43.1974 33.9738 39.1037 33.9755 33.1477C33.9602 27.5034 37.6467 22.7417 43.3726 22.7417C48.2262 22.6167 51.5864 26.4765 51.6 31.2808C51.6 32.1558 51.5508 33.0338 51.444 33.9024C51.4233 34.0813 51.2699 34.2203 51.093 34.2202C47.2166 34.2202 43.3214 34.2759 39.4344 34.2759ZM39.4344 30.6574C41.5947 30.6574 43.7675 30.7332 45.9265 30.6375C46.2511 30.6045 46.492 30.5434 46.492 30.2082C46.447 28.4271 44.9337 26.9623 43.1777 27.0305C41.0559 26.8998 39.6981 28.6787 39.4344 30.6574Z" fill="#6D6D71"/>
</g>
</g>
</svg>
