<svg preserveAspectRatio="none" width="100%" height="100%" overflow="visible" style="display: block;" viewBox="0 0 24.252 24.583" fill="none" xmlns="http://www.w3.org/2000/svg">
<path id="Union" d="M12.1441 0.000995919C12.5321 -0.00481226 12.9271 0.136832 13.2271 0.436543L23.813 11.0225C24.3621 11.5717 24.3958 12.4403 23.9156 13.0293L23.813 13.1436C23.2273 13.7291 22.2777 13.7292 21.6919 13.1436L13.6666 5.11818V23.083C13.6665 23.9114 12.9949 24.5829 12.1666 24.583C11.3384 24.5828 10.6666 23.9112 10.6666 23.083V5.03713L2.56011 13.1436C1.97441 13.7289 1.02477 13.7292 0.43902 13.1436C-0.146385 12.5578 -0.146295 11.6081 0.43902 11.0225L11.025 0.436543L11.1461 0.328144C11.4261 0.103063 11.7678 -0.00347458 12.105 0.000995919C12.1114 0.00073811 12.1182 0.00114533 12.1246 0.000995919C12.1312 0.00117239 12.1384 -0.000175738 12.1451 1.93566e-05L12.1441 0.000995919Z" fill="var(--fill-0, #51473F)" fill-opacity="0.5"/>
</svg>
