<svg preserveAspectRatio="none" width="100%" height="100%" overflow="visible" style="display: block;" viewBox="0 0 12.6665 21.9999" fill="none" xmlns="http://www.w3.org/2000/svg">
<path id="Union" fill-rule="evenodd" clip-rule="evenodd" d="M0.486116 0.483001C1.1336 -0.161055 2.18248 -0.160946 2.82987 0.483001L12.1827 9.7955L12.1951 9.80852L12.2908 9.91529L12.3025 9.92831C12.5528 10.2385 12.6707 10.6161 12.6658 10.9856V10.9973L12.6665 11.0266C12.6663 11.0318 12.6649 11.0371 12.6645 11.0422C12.6629 11.4578 12.5072 11.8808 12.1827 12.2044L2.83052 21.5169C2.22308 22.1215 1.26284 22.1578 0.611767 21.6295C0.607823 21.6263 0.603838 21.6225 0.600048 21.6191L0.499137 21.5292C0.494817 21.5254 0.490236 21.5209 0.486116 21.5169C-0.162013 20.8713 -0.162064 19.8239 0.486116 19.1783L7.57596 12.1191L8.66515 11.0129L7.64757 9.9524L0.486116 2.82154C-0.161733 2.17611 -0.162129 1.1286 0.486116 0.483001ZM2.4783 21.3821C2.48562 21.3764 2.49388 21.3717 2.50109 21.3658L2.51476 21.3528C2.5028 21.3629 2.49054 21.3725 2.4783 21.3821Z" fill="var(--fill-0, #51473F)" fill-opacity="0.5"/>
</svg>
