<svg preserveAspectRatio="none" width="100%" height="100%" overflow="visible" style="display: block;" viewBox="0 0 60 60" fill="none" xmlns="http://www.w3.org/2000/svg">
<g id="Photoshop">
<rect width="60" height="60" rx="16" fill="var(--fill-0, #C9C0BB)" fill-opacity="0.5"/>
<g id="Vector">
<path d="M12.6 42.4729V17.2172C12.6 17.0454 12.6724 16.9473 12.8412 16.9473C15.3342 16.9473 17.826 16.8 20.3196 16.8C24.3659 16.8 28.7471 18.1724 30.2828 22.3715C30.6446 23.4023 30.8376 24.4577 30.8376 25.5622C30.8376 27.6729 30.3551 29.4156 29.3902 30.79C26.6947 34.6294 22.0228 34.5698 17.8349 34.5698V42.4484C17.8676 42.6816 17.6673 42.792 17.473 42.792H12.8895C12.6965 42.792 12.6 42.6938 12.6 42.4729ZM17.859 21.6842V29.931C19.5195 30.0517 21.2571 30.0648 22.8526 29.5383C24.614 29.0343 25.5786 27.5218 25.5786 25.7094C25.6276 24.1651 24.7793 22.6833 23.3351 22.126C21.7589 21.4759 19.5605 21.4369 17.859 21.6842Z" fill="#6D6D71"/>
<path d="M45.884 28.3017C45.154 27.9201 44.3766 27.6409 43.573 27.4718C42.5403 27.2308 38.4672 26.3866 38.4656 28.4992C38.5018 29.6787 40.3892 30.2566 41.2232 30.5936C44.1508 31.5906 47.4638 33.3729 47.3987 36.9556C47.4882 41.4157 43.1319 43.1986 39.3977 43.1991C37.4537 43.219 35.4286 42.9203 33.6495 42.0926C33.4797 42.0034 33.3703 41.8127 33.3776 41.6184V37.3507C33.3585 37.1796 33.5436 37.0301 33.6884 37.1532C35.4315 38.1989 37.4977 38.7066 39.5142 38.7338C40.4044 38.7338 42.1687 38.6482 42.1554 37.3507C42.1554 36.1056 40.0448 35.5332 39.2035 35.2169C37.984 34.785 36.8277 34.1868 35.7662 33.4387C34.2829 32.3891 33.3523 30.7063 33.3776 28.8549C33.369 24.6553 37.3789 22.7703 40.9902 22.7695C42.6784 22.7557 44.4913 22.8797 46.0629 23.5598C46.2889 23.6258 46.3357 23.8619 46.3347 24.0735V28.0646C46.3491 28.3123 46.0717 28.3967 45.884 28.3017Z" fill="#6D6D71"/>
</g>
</g>
</svg>
