<svg preserveAspectRatio="none" width="100%" height="100%" overflow="visible" style="display: block;" viewBox="0 0 60 60" fill="none" xmlns="http://www.w3.org/2000/svg">
<g id="figma">
<rect width="60" height="60" rx="16" fill="var(--fill-0, #C9C0BB)" fill-opacity="0.5"/>
<path id="Union" fill-rule="evenodd" clip-rule="evenodd" d="M36 11C37.0834 11 38.1563 11.2133 39.1572 11.6279C40.1581 12.0425 41.0679 12.65 41.834 13.416C42.6 14.1821 43.2075 15.0919 43.6221 16.0928C44.0367 17.0937 44.25 18.1666 44.25 19.25C44.25 20.3334 44.0366 21.4063 43.6221 22.4072C43.2075 23.4081 42.6 24.3179 41.834 25.084C41.7771 25.1408 41.7176 25.1949 41.6592 25.25C41.7176 25.3051 41.7771 25.3591 41.834 25.416C42.6 26.1821 43.2075 27.0919 43.6221 28.0928C44.0367 29.0937 44.25 30.1666 44.25 31.25C44.25 32.3334 44.0366 33.4063 43.6221 34.4072C43.2075 35.4081 42.6 36.3179 41.834 37.084C41.0679 37.85 40.1581 38.4575 39.1572 38.8721C38.1563 39.2867 37.0834 39.5 36 39.5C34.9166 39.5 33.8437 39.2867 32.8428 38.8721C32.6409 38.7885 32.444 38.6947 32.25 38.5957V43.25C32.25 45.438 31.3811 47.5368 29.834 49.084C28.2868 50.6312 26.188 51.5 24 51.5C21.812 51.5 19.7132 50.6312 18.166 49.084C16.6189 47.5368 15.75 45.438 15.75 43.25C15.75 41.062 16.6189 38.9632 18.166 37.416C18.2228 37.3593 18.2816 37.3049 18.3398 37.25C18.2817 37.1951 18.2227 37.1407 18.166 37.084C16.6189 35.5368 15.75 33.438 15.75 31.25C15.75 29.062 16.6189 26.9632 18.166 25.416C18.2228 25.3593 18.2816 25.3049 18.3398 25.25C18.2817 25.1951 18.2227 25.1407 18.166 25.084C16.6189 23.5368 15.75 21.438 15.75 19.25C15.75 17.062 16.6189 14.9632 18.166 13.416C19.7132 11.8689 21.812 11 24 11H36ZM24 39.5C23.0055 39.5 22.0519 39.8954 21.3486 40.5986C20.6454 41.3019 20.25 42.2555 20.25 43.25C20.25 44.2445 20.6454 45.1981 21.3486 45.9014C22.0519 46.6046 23.0054 47 24 47C24.9946 47 25.9481 46.6046 26.6514 45.9014C27.3546 45.1981 27.75 44.2445 27.75 43.25V39.5H24ZM24 27.5C23.0055 27.5 22.0519 27.8954 21.3486 28.5986C20.6454 29.3019 20.25 30.2555 20.25 31.25C20.25 32.2445 20.6454 33.1981 21.3486 33.9014C22.0519 34.6046 23.0054 35 24 35H27.75V27.5H24ZM36 27.5C35.5076 27.5 35.0194 27.5967 34.5645 27.7852C34.1096 27.9736 33.6968 28.2505 33.3486 28.5986C33.0005 28.9468 32.7236 29.3596 32.5352 29.8145C32.3467 30.2694 32.25 30.7576 32.25 31.25C32.25 31.7424 32.3467 32.2306 32.5352 32.6855C32.7236 33.1404 33.0005 33.5532 33.3486 33.9014C33.6968 34.2495 34.1096 34.5264 34.5645 34.7148C35.0194 34.9033 35.5075 35 36 35C36.4925 35 36.9806 34.9033 37.4355 34.7148C37.8904 34.5264 38.3032 34.2495 38.6514 33.9014C38.9995 33.5532 39.2764 33.1404 39.4648 32.6855C39.6533 32.2306 39.75 31.7424 39.75 31.25C39.75 30.7576 39.6533 30.2694 39.4648 29.8145C39.2764 29.3596 38.9995 28.9468 38.6514 28.5986C38.3032 28.2505 37.8904 27.9736 37.4355 27.7852C36.9806 27.5967 36.4924 27.5 36 27.5ZM24 15.5C23.0055 15.5 22.0519 15.8954 21.3486 16.5986C20.6454 17.3019 20.25 18.2555 20.25 19.25C20.25 20.2445 20.6454 21.1981 21.3486 21.9014C22.0519 22.6046 23.0054 23 24 23H27.75V15.5H24ZM32.25 23H36C36.4925 23 36.9806 22.9033 37.4355 22.7148C37.8904 22.5264 38.3032 22.2495 38.6514 21.9014C38.9995 21.5532 39.2764 21.1404 39.4648 20.6855C39.6533 20.2306 39.75 19.7424 39.75 19.25C39.75 18.7576 39.6533 18.2694 39.4648 17.8145C39.2764 17.3596 38.9995 16.9468 38.6514 16.5986C38.3032 16.2505 37.8904 15.9736 37.4355 15.7852C36.9806 15.5967 36.4924 15.5 36 15.5H32.25V23Z" fill="var(--fill-0, #6D6D71)"/>
</g>
</svg>
