<svg preserveAspectRatio="none" width="100%" height="100%" overflow="visible" style="display: block;" viewBox="0 0 327.729 47.1035" fill="none" xmlns="http://www.w3.org/2000/svg">
<path id="Union" d="M105.835 0C109.248 3.55393e-05 112.405 0.554764 115.307 1.66406C118.25 2.73068 120.683 4.2663 122.603 6.27148L114.539 14.2715C113.131 12.9062 111.722 11.9037 110.314 11.2637C108.907 10.5811 107.371 10.2403 105.707 10.2402C104.384 10.2402 103.317 10.4533 102.507 10.8799C101.739 11.3065 101.355 11.9465 101.354 12.7998C101.354 13.6958 101.739 14.4427 102.507 15.04C103.275 15.5947 104.277 16.1069 105.515 16.5762C106.795 17.0455 108.182 17.5359 109.675 18.0479C111.211 18.5598 112.725 19.179 114.219 19.9043C115.712 20.5869 117.077 21.4826 118.314 22.5918C119.594 23.6585 120.619 25.0027 121.387 26.624C122.155 28.2453 122.539 30.2079 122.539 32.5117C122.539 37.1624 120.875 40.7681 117.547 43.3281C114.262 45.8454 109.611 47.1035 103.595 47.1035C99.7121 47.1035 96.3203 46.5488 93.4189 45.4395C90.5603 44.2875 87.9144 42.4747 85.4824 40L93.4824 32C95.1463 33.5786 96.8959 34.7941 98.7305 35.6475C100.565 36.4581 102.528 36.8642 104.618 36.8643C106.367 36.8643 107.691 36.6077 108.587 36.0957C109.483 35.5411 109.931 34.794 109.931 33.8555C109.931 32.917 109.546 32.149 108.778 31.5518C108.01 30.9119 106.987 30.357 105.707 29.8877C104.47 29.3757 103.083 28.8636 101.547 28.3516C100.054 27.8396 98.5597 27.2214 97.0664 26.4961C95.5731 25.7708 94.1862 24.896 92.9062 23.8721C91.669 22.8054 90.6664 21.5037 89.8984 19.9678C89.1305 18.3892 88.7471 16.4692 88.7471 14.208C88.7471 11.264 89.4504 8.72513 90.8584 6.5918C92.2664 4.45847 94.2505 2.83687 96.8105 1.72754C99.3705 0.575562 102.379 0 105.835 0ZM171.29 0C175.514 4.62869e-05 179.289 0.725287 182.617 2.17578C185.988 3.62639 188.719 5.58895 190.81 8.06348L182.17 16.7041C180.591 14.8694 178.948 13.5044 177.241 12.6084C175.535 11.7124 173.487 11.2637 171.098 11.2637C168.836 11.2637 166.789 11.776 164.954 12.7998C163.119 13.7811 161.647 15.1897 160.538 17.0244C159.471 18.859 158.938 21.0137 158.938 23.4883C158.938 25.9626 159.428 28.1385 160.409 30.0156C161.433 31.8503 162.842 33.2797 164.634 34.3037C166.426 35.3277 168.516 35.8398 170.905 35.8398C173.209 35.8398 175.151 35.392 176.729 34.4961C178.308 33.6001 179.503 32.3201 180.313 30.6562C180.416 30.4558 180.512 30.2502 180.603 30.041L169.178 29.6963V19.4561H194.458V21.376C194.458 26.8373 193.455 31.4881 191.449 35.3281C189.487 39.1679 186.714 42.0904 183.13 44.0957C179.589 46.101 175.45 47.1035 170.714 47.1035C167.173 47.1035 163.887 46.528 160.857 45.376C157.871 44.1813 155.247 42.5171 152.985 40.3838C150.767 38.2505 149.039 35.7541 147.802 32.8955C146.565 30.0369 145.945 26.9223 145.945 23.5518C145.945 20.1385 146.585 17.0022 147.865 14.1436C149.188 11.285 151.002 8.81035 153.306 6.71973C155.652 4.58646 158.362 2.94397 161.434 1.79199C164.506 0.597326 167.791 0 171.29 0ZM19.1992 0.767578C22.7832 0.767578 26.069 1.3015 29.0557 2.36816C32.0849 3.43481 34.7091 4.97033 36.9277 6.97559C39.1464 8.98092 40.8532 11.392 42.0479 14.208C43.2851 16.9813 43.9033 20.0959 43.9033 23.5518C43.9033 27.0077 43.2852 30.144 42.0479 32.96C40.8532 35.7333 39.1464 38.1226 36.9277 40.1279C34.7091 42.1332 32.1067 43.6697 29.1201 44.7363C26.1335 45.803 22.8685 46.3359 19.3271 46.3359H0V0.767578H19.1992ZM83.5566 0.767578V11.3916H61.9248V17.9199H81.5723V28.2881H61.9248V35.7119H83.9404V46.3359H49.125V0.767578H83.5566ZM140.675 46.3359H127.875V0.767578H140.675V46.3359ZM208.21 0.767578L227.409 24.8945V0.767578H240.21V46.3359H230.609L212.05 23.0127V46.3359H199.25V0.767578H208.21ZM282.182 0.767578V11.3916H260.55V17.9199H280.197V28.2881H260.55V35.7119H282.565V46.3359H247.75V0.767578H282.182ZM308.784 0.767578C311.941 0.767578 314.715 1.34411 317.104 2.49609C319.494 3.64806 321.371 5.24798 322.736 7.2959C324.102 9.34388 324.784 11.7332 324.784 14.4639C324.784 17.1945 324.081 19.5839 322.673 21.6318C321.308 23.6797 319.388 25.2797 316.913 26.4316C316.12 26.8008 315.28 27.1095 314.396 27.3604L327.729 46.3359H313.2L301.602 28.1602H301.425V46.3359H288.625V0.767578H308.784ZM12.7998 35.4561H19.1992C21.5884 35.4561 23.6579 35.029 25.4072 34.1758C27.1566 33.2798 28.5008 31.9356 29.4395 30.1436C30.378 28.3517 30.8476 26.1334 30.8477 23.4883C30.8477 20.8429 30.3573 18.6448 29.376 16.8955C28.4373 15.1463 27.0929 13.8455 25.3438 12.9922C23.6371 12.0962 21.5886 11.6475 19.1992 11.6475H12.7998V35.4561ZM301.425 19.3281H306.736C308.486 19.3281 309.809 18.9012 310.705 18.0479C311.643 17.1946 312.112 16.064 312.112 14.6562C312.112 13.2483 311.644 12.117 310.705 11.2637C309.809 10.4103 308.486 9.98438 306.736 9.98438H301.425V19.3281Z" fill="url(#paint0_linear_978_842)"/>
<defs>
<linearGradient id="paint0_linear_978_842" x1="615.692" y1="15.1035" x2="-526.462" y2="15.1035" gradientUnits="userSpaceOnUse">
<stop stop-color="#BF9162"/>
<stop offset="1" stop-color="#6D6D71"/>
</linearGradient>
</defs>
</svg>
