<svg preserveAspectRatio="none" width="100%" height="100%" overflow="visible" style="display: block;" viewBox="0 0 204.83 29.4404" fill="none" xmlns="http://www.w3.org/2000/svg">
<path id="Union" d="M66.1465 0C68.2798 0 70.2531 0.346725 72.0664 1.04004C73.9064 1.70671 75.427 2.66659 76.627 3.91992L71.5869 8.91992C70.7069 8.06659 69.8263 7.44004 68.9463 7.04004C68.0663 6.61342 67.1063 6.40039 66.0664 6.40039C65.2398 6.4004 64.573 6.53315 64.0664 6.7998C63.5864 7.06647 63.3467 7.46668 63.3467 8C63.3467 8.55998 63.5864 9.02707 64.0664 9.40039C64.5464 9.74701 65.1731 10.0671 65.9463 10.3604C66.7463 10.6537 67.6135 10.9603 68.5469 11.2803C69.5067 11.6002 70.4535 11.9872 71.3867 12.4404C72.3199 12.8671 73.1731 13.4269 73.9463 14.1201C74.7462 14.7867 75.3862 15.6265 75.8662 16.6396C76.3462 17.653 76.5869 18.8803 76.5869 20.3203C76.5868 23.2268 75.5466 25.4801 73.4668 27.0801C71.4135 28.6534 68.5061 29.4404 64.7461 29.4404C62.3197 29.4404 60.1999 29.0936 58.3867 28.4004C56.6001 27.6804 54.9467 26.5466 53.4268 25L58.4268 20C59.4666 20.9865 60.5595 21.747 61.7061 22.2803C62.8527 22.7869 64.0801 23.04 65.3867 23.04C66.4799 23.04 67.3062 22.8795 67.8662 22.5596C68.4261 22.2129 68.706 21.7467 68.7061 21.1602C68.7061 20.5735 68.4663 20.0931 67.9863 19.7197C67.5064 19.3198 66.8663 18.973 66.0664 18.6797C65.2932 18.3597 64.4266 18.0397 63.4668 17.7197C62.5335 17.3998 61.6003 17.0129 60.667 16.5596C59.7337 16.1062 58.8664 15.5599 58.0664 14.9199C57.2931 14.2533 56.6665 13.4395 56.1865 12.4795C55.7066 11.4929 55.4668 10.293 55.4668 8.87988C55.4668 7.04005 55.9063 5.45337 56.7861 4.12012C57.6661 2.78679 58.9068 1.77341 60.5068 1.08008C62.1068 0.360147 63.9866 4.3444e-06 66.1465 0ZM107.056 0C109.696 0 112.056 0.453685 114.136 1.36035C116.242 2.26702 117.949 3.49338 119.256 5.04004L113.855 10.4404C112.869 9.29388 111.843 8.43988 110.776 7.87988C109.71 7.31988 108.429 7.04004 106.936 7.04004C105.522 7.04009 104.242 7.36005 103.096 8C101.949 8.61329 101.029 9.49316 100.336 10.6396C99.6693 11.7862 99.336 13.1331 99.3359 14.6797C99.3359 16.2263 99.6426 17.5865 100.256 18.7598C100.896 19.9064 101.776 20.8004 102.896 21.4404C104.015 22.0804 105.322 22.4003 106.815 22.4004C108.255 22.4004 109.469 22.1196 110.456 21.5596C111.443 20.9996 112.19 20.2001 112.696 19.1602C112.761 19.0347 112.82 18.9063 112.877 18.7754L105.736 18.5596V12.1602H121.536V13.3604C121.536 16.7735 120.91 19.6802 119.656 22.0801C118.43 24.48 116.696 26.3062 114.456 27.5596C112.243 28.8128 109.656 29.4404 106.696 29.4404C104.483 29.4404 102.429 29.0803 100.536 28.3604C98.6696 27.6137 97.0295 26.5734 95.6162 25.2402C94.2295 23.9069 93.1493 22.3462 92.376 20.5596C91.6027 18.773 91.2158 16.8263 91.2158 14.7197C91.2158 12.5865 91.616 10.6264 92.416 8.83984C93.2426 7.05339 94.3756 5.50676 95.8154 4.2002C97.282 2.86695 98.9757 1.84011 100.896 1.12012C102.815 0.373477 104.869 2.68107e-05 107.056 0ZM12 0.479492C14.2396 0.479527 16.2928 0.812995 18.1592 1.47949C20.0525 2.14616 21.6934 3.10702 23.0801 4.36035C24.4665 5.61356 25.5327 7.12015 26.2793 8.87988C27.0526 10.6132 27.4394 12.5598 27.4395 14.7197C27.4395 16.8797 27.0526 18.8397 26.2793 20.5996C25.5327 22.3329 24.4667 23.8268 23.0801 25.0801C21.6934 26.3334 20.0659 27.2933 18.1992 27.96C16.3328 28.6265 14.2931 28.9599 12.0801 28.96H0V0.479492H12ZM52.2227 0.479492V7.12012H38.7031V11.2002H50.9824V17.6797H38.7031V22.3203H52.4629V28.96H30.7031V0.479492H52.2227ZM87.9219 28.96H79.9219V0.479492H87.9219V28.96ZM130.131 0.479492L142.131 15.5586V0.479492H150.131V28.96H144.131L132.531 14.3828V28.96H124.531V0.479492H130.131ZM176.363 0.479492V7.12012H162.844V11.2002H175.123V17.6797H162.844V22.3203H176.604V28.96H154.844V0.479492H176.363ZM192.99 0.479492C194.964 0.479492 196.697 0.83958 198.19 1.55957C199.684 2.27949 200.857 3.27977 201.71 4.55957C202.563 5.83957 202.99 7.33337 202.99 9.04004C202.99 10.7466 202.55 12.2396 201.67 13.5195C200.817 14.7995 199.617 15.7995 198.07 16.5195C197.575 16.7502 197.05 16.9438 196.497 17.1006L204.83 28.96H195.75L188.501 17.5996H188.391V28.96H180.391V0.479492H192.99ZM8 22.1602H12C13.4932 22.1601 14.7866 21.8936 15.8799 21.3604C16.9732 20.8004 17.8128 19.9598 18.3994 18.8398C18.9861 17.7198 19.2793 16.333 19.2793 14.6797C19.2793 13.0265 18.9727 11.6528 18.3594 10.5596C17.7728 9.46652 16.9329 8.65338 15.8398 8.12012C14.7733 7.56016 13.4932 7.28032 12 7.28027H8V22.1602ZM188.391 12.0801H191.71C192.803 12.0801 193.63 11.8136 194.19 11.2803C194.777 10.747 195.07 10.0401 195.07 9.16016C195.07 8.28022 194.777 7.57336 194.19 7.04004C193.63 6.50671 192.803 6.24023 191.71 6.24023H188.391V12.0801Z" fill="url(#paint0_linear_978_839)"/>
<defs>
<linearGradient id="paint0_linear_978_839" x1="207" y1="9.44043" x2="-177" y2="9.44043" gradientUnits="userSpaceOnUse">
<stop stop-color="#BF9162"/>
<stop offset="1" stop-color="#6D6D71"/>
</linearGradient>
</defs>
</svg>
