<svg preserveAspectRatio="none" width="100%" height="100%" overflow="visible" style="display: block;" viewBox="0 0 60 60" fill="none" xmlns="http://www.w3.org/2000/svg">
<g id="Gitmind">
<rect width="60" height="60" rx="16" fill="var(--fill-0, #C9C0BB)" fill-opacity="0.5"/>
<g id="Union">
<path d="M38.5345 28.636L38.4696 28.9188C38.1502 30.188 36.529 35.3713 31.047 37.0258C29.7962 37.3685 28.6591 37.4998 27.6712 37.4977C27.518 37.4996 27.3683 37.4996 27.222 37.4954C27.2187 37.4928 27.2158 37.4893 27.2126 37.4868C25.2898 37.3983 24.0129 36.7945 23.679 36.3047C23.1578 35.5379 23.9611 34.3048 27.4962 32.9813C30.9769 31.6789 38.3005 28.7299 38.5282 28.6383C38.532 28.6368 38.5345 28.636 38.5345 28.636Z" fill="#6D6D71"/>
<path fill-rule="evenodd" clip-rule="evenodd" d="M18.7595 19.6665C21.7046 16.5353 26.0464 14.7873 30.3353 15.0212C30.9555 15.055 31.4744 15.2645 31.9282 15.6821C32.3706 16.0892 32.5625 16.6943 32.5884 17.2782C32.6132 17.8404 32.3187 18.4825 31.9282 18.8743C31.5409 19.2622 30.8926 19.5654 30.3353 19.5352C29.6263 19.4966 28.9163 19.5145 28.2111 19.5907C27.2971 19.7373 26.4031 19.9819 25.5415 20.3212C24.724 20.6912 23.9482 21.1454 23.2243 21.6758C22.5163 22.2502 21.871 22.8962 21.2978 23.6055C20.7705 24.328 20.3202 25.1021 19.9525 25.9172C19.6149 26.7801 19.3718 27.6754 19.2243 28.5907C19.1367 29.4021 19.1234 30.219 19.1868 31.0321C21.7902 29.479 24.7894 27.9213 28.0415 26.4704C39.6428 21.2926 50.0826 19.4223 51.3587 22.293H51.3603C52.1297 24.0246 49.3874 27.0871 44.5423 30.3813C44.5608 30.498 44.5689 30.6138 44.5626 30.7258C44.5193 31.4871 44.4188 32.2508 44.2767 32.9993C43.8091 35.457 42.6458 37.6966 41.0814 39.6251C40.4874 40.3567 39.813 41.0222 39.0743 41.6055C38.1771 42.3143 37.2547 42.9595 36.2212 43.454C34.1336 44.4522 31.8764 45.0114 29.5548 44.9993C27.2368 44.9871 24.9838 44.4229 22.9056 43.4087C21.8087 42.874 20.7845 42.1888 19.8571 41.3868C14.1976 42.7796 10.1124 42.7691 9.34465 41.0422C8.63327 39.4409 10.9226 36.7032 15.0993 33.6977C15.0825 33.6301 15.0659 33.5626 15.0501 33.4946C14.4256 30.8048 14.5077 27.9064 15.3986 25.2844C16.1108 23.1878 17.2415 21.2799 18.7595 19.6665ZM16.3118 36.8938C14.425 38.4301 13.4725 39.7182 13.8196 40.4985C14.2177 41.3935 16.2532 41.4628 19.2712 40.8524C18.0802 39.7063 17.0743 38.3602 16.3118 36.8938ZM47.8689 25.1063C47.3229 24.3796 45.442 24.3364 42.7267 24.8641C39.2748 25.5348 34.4736 27.1289 29.3493 29.4157C25.8018 30.9985 22.6058 32.6882 20.0431 34.2821C20.395 35.0269 20.816 35.7352 21.3017 36.4001C21.8744 37.1083 22.519 37.7544 23.2259 38.3282C23.9455 38.8559 24.7165 39.3067 25.529 39.6751C26.3928 40.0149 27.2895 40.2599 28.2056 40.4071C29.1403 40.5082 30.0823 40.5098 31.0165 40.4087C31.9273 40.262 32.8182 40.0174 33.6767 39.6797C34.4945 39.3092 35.2714 38.8551 35.9962 38.3243C36.7037 37.7499 37.3487 37.1042 37.922 36.3954C38.4501 35.6714 38.9004 34.896 39.2696 34.079C39.6072 33.2151 39.8509 32.3186 39.9978 31.4024C40.0221 31.1774 40.0422 30.9519 40.0548 30.7258C40.0903 30.104 40.2976 29.5862 40.715 29.1305C41.1213 28.6874 41.725 28.4948 42.3079 28.4688C42.869 28.4439 43.5104 28.7394 43.9009 29.1305C44.0656 29.2951 44.2155 29.5079 44.3306 29.7407C44.4181 29.6768 44.5053 29.6137 44.5892 29.5508C44.6292 29.5218 44.6684 29.4919 44.7079 29.4618C44.7972 29.3952 44.8839 29.3283 44.9689 29.2633C46.8747 27.7933 47.993 26.5205 48.0321 25.654L48.0306 25.6547V25.6329C48.0342 25.499 48.0113 25.375 47.9611 25.2618C47.9367 25.2068 47.9058 25.155 47.8689 25.1063Z" fill="#6D6D71"/>
<path d="M37.1704 15.6821C37.2605 15.6821 37.3516 15.7267 37.4032 15.8157L38.2665 17.3133L39.7634 18.1758C39.9425 18.2797 39.9425 18.5378 39.7634 18.6407L38.2665 19.5047L37.4032 21.0024C37.3 21.1813 37.0413 21.1812 36.9384 21.0024L36.0743 19.5047L34.5775 18.6407C34.4885 18.5896 34.4432 18.4994 34.4431 18.4094C34.4431 18.3194 34.4878 18.228 34.5775 18.1758L36.0743 17.3133L36.9384 15.8157C36.9901 15.7269 37.0805 15.6822 37.1704 15.6821Z" fill="#6D6D71"/>
</g>
</g>
</svg>
