<svg preserveAspectRatio="none" width="100%" height="100%" overflow="visible" style="display: block;" viewBox="0 0 30.0833 24.5167" fill="none" xmlns="http://www.w3.org/2000/svg">
<g id="Union">
<path d="M22.7335 13.6827C23.2857 13.6828 23.7335 14.1305 23.7335 14.6827V23.5167C23.7335 24.069 23.2858 24.5167 22.7335 24.5167H6.36146C5.80924 24.5166 5.36146 24.069 5.36146 23.5167V14.6827C5.36153 14.1306 5.80929 13.6828 6.36146 13.6827C6.91367 13.6828 7.36139 14.1305 7.36146 14.6827V22.5167H21.7335V14.6827C21.7336 14.1306 22.1814 13.6828 22.7335 13.6827Z" fill="#6D6D71" fill-opacity="0.5"/>
<path d="M15.0441 0.00500894C15.06 0.00624722 15.076 0.00816512 15.0919 0.00989175C15.15 0.0161893 15.2072 0.0248386 15.2628 0.0372355C15.2692 0.0386614 15.276 0.0396365 15.2824 0.0411418C15.2928 0.0436164 15.3033 0.0462838 15.3136 0.0489543C15.3284 0.0527947 15.343 0.0573849 15.3576 0.0616496C15.3781 0.0676747 15.3983 0.0743856 15.4181 0.0811808C15.4316 0.0857959 15.4449 0.0908452 15.4581 0.0958293C15.4804 0.104258 15.5023 0.11282 15.5236 0.122196C15.5305 0.12524 15.5372 0.128812 15.5441 0.131962C15.5678 0.142956 15.5911 0.154016 15.6134 0.166142C15.624 0.171819 15.6343 0.177779 15.6447 0.18372C15.6596 0.192413 15.6744 0.200904 15.6886 0.210087C15.8332 0.302243 15.9473 0.42119 16.0128 0.56165L16.0275 0.590946C16.0384 0.613507 16.056 0.649643 16.0792 0.695439C16.1263 0.788057 16.1981 0.927016 16.2951 1.10071C16.4898 1.44952 16.7855 1.943 17.1808 2.51184C17.9771 3.65767 19.16 5.078 20.7247 6.25403C22.26 7.40764 24.3779 8.3078 26.1681 8.92591C27.0535 9.23158 27.8396 9.46113 28.4015 9.61438C28.6814 9.69073 28.9051 9.7488 29.0568 9.78626C29.123 9.80263 29.1757 9.81554 29.213 9.82434L29.2277 9.82727L29.2697 9.83704L29.3898 9.86829C29.9252 10.0333 30.209 10.4638 30.0294 10.8683C29.8369 11.2997 29.1805 11.5371 28.5744 11.4005L28.5597 11.3976C28.5465 11.3945 28.5265 11.3894 28.5031 11.3839L28.465 11.3751C28.4218 11.365 28.3667 11.3521 28.3019 11.3361C28.1292 11.2934 27.8816 11.2299 27.5763 11.1466C26.9661 10.9802 26.1182 10.7316 25.1622 10.4015C23.2686 9.74765 20.8641 8.74547 19.0509 7.38294C17.2678 6.04283 15.965 4.46352 15.1144 3.23938C15.046 3.14096 14.9819 3.04335 14.9191 2.94934C14.8563 3.04325 14.7921 3.14105 14.7238 3.23938C13.873 4.46358 12.5705 6.04285 10.7872 7.38294C8.98105 8.74014 6.64692 9.74158 4.81263 10.3966C3.88741 10.727 3.06998 10.976 2.48256 11.1427C2.18887 11.2261 1.95133 11.2904 1.78529 11.3331C1.72736 11.3481 1.67707 11.3596 1.63685 11.3693L1.59095 11.381L1.55873 11.3888L1.53724 11.3947L1.52259 11.3986C0.91926 11.5406 0.25933 11.3092 0.0587271 10.88C-0.141374 10.4501 0.186455 9.9855 0.790172 9.8429L0.837047 9.83118C0.872686 9.8224 0.928204 9.80869 1.00013 9.79016C1.14506 9.75283 1.36098 9.69562 1.63002 9.61927C2.16893 9.46631 2.9241 9.23621 3.77943 8.93079C5.5068 8.31395 7.57205 7.41386 9.11439 6.25501C10.6794 5.07888 11.862 3.65782 12.6583 2.51184C13.0537 1.94289 13.3483 1.44958 13.5431 1.10071C13.6402 0.926709 13.7128 0.788137 13.7599 0.695439C13.7831 0.649668 13.8007 0.614553 13.8117 0.591923L13.8234 0.567509L13.8683 0.483525C13.9324 0.381716 14.0245 0.294431 14.1339 0.221806C14.1698 0.197815 14.2077 0.174166 14.2482 0.153446L14.2716 0.141728C14.2766 0.139305 14.2822 0.13724 14.2872 0.134892C14.3302 0.114776 14.3756 0.0963033 14.423 0.0802043C14.4431 0.0733735 14.4639 0.0676434 14.4845 0.0616496C14.5082 0.0547852 14.5322 0.0469666 14.5568 0.0411418C14.5783 0.0360649 14.6006 0.0325681 14.6222 0.0284464C14.6361 0.0257956 14.6502 0.0229219 14.6642 0.0206339C14.7185 0.0118143 14.7731 0.00618318 14.8273 0.00305582C14.8367 0.00251365 14.8462 0.000525154 14.8556 0.000126128H14.8986C14.9474 -0.000508027 14.9961 0.00126901 15.0441 0.00500894Z" fill="#6D6D71" fill-opacity="0.5"/>
</g>
</svg>
