<svg preserveAspectRatio="none" width="100%" height="100%" overflow="visible" style="display: block;" viewBox="0 0 18.4019 23.834" fill="none" xmlns="http://www.w3.org/2000/svg">
<g id="Union">
<path d="M12.611 13.3525C12.9688 12.9321 13.5995 12.8806 14.0201 13.2383C15.7805 14.7358 16.9624 16.0726 17.6481 17.623C18.3367 19.1805 18.4753 20.8428 18.3707 22.8857C18.3433 23.417 17.9046 23.8336 17.3727 23.834H1.00061C0.450717 23.834 0.00398166 23.3897 0.00060664 22.8398C-0.0108379 20.9705 0.135541 19.4077 0.790646 17.8711C1.4433 16.3404 2.55927 14.9303 4.31311 13.2734C4.71459 12.8944 5.34797 12.9121 5.72717 13.3135C6.10599 13.7148 6.08803 14.3473 5.68713 14.7266C4.02404 16.2976 3.12907 17.4859 2.63049 18.6553C2.23285 19.5879 2.06225 20.5698 2.01525 21.834H16.399C16.4061 20.4226 16.2355 19.3738 15.819 18.4316C15.311 17.2831 14.3913 16.1798 12.7242 14.7617C12.3037 14.4039 12.2532 13.7732 12.611 13.3525Z" fill="#6D6D71" fill-opacity="0.5"/>
<path fill-rule="evenodd" clip-rule="evenodd" d="M8.99963 0C12.3132 0.000199968 14.9996 2.68641 14.9996 6C14.9996 9.31359 12.3132 11.9998 8.99963 12C5.68592 12 2.99963 9.31371 2.99963 6C2.99963 2.68629 5.68592 0 8.99963 0ZM8.99963 2C6.79049 2 4.99963 3.79086 4.99963 6C4.99963 8.20914 6.79049 10 8.99963 10C11.2086 9.9998 12.9996 8.20902 12.9996 6C12.9996 3.79098 11.2086 2.0002 8.99963 2Z" fill="#6D6D71" fill-opacity="0.5"/>
</g>
</svg>
