<svg preserveAspectRatio="none" width="100%" height="100%" overflow="visible" style="display: block;" viewBox="0 0 26.1327 23" fill="none" xmlns="http://www.w3.org/2000/svg">
<g id="Union">
<path d="M24.1565 5.77832C24.2789 5.23989 24.8153 4.90223 25.3538 5.02441C25.8922 5.14676 26.2299 5.68317 26.1077 6.22168L22.4759 22.2217C22.3724 22.6769 21.9672 23 21.5003 23H4.13211C3.57986 23 3.13211 22.5523 3.13211 22C3.13211 21.4477 3.57986 21 4.13211 21H20.7024L24.1565 5.77832Z" fill="#6D6D71" fill-opacity="0.5"/>
<path fill-rule="evenodd" clip-rule="evenodd" d="M22.0003 0C22.3043 0 22.5918 0.138502 22.7815 0.375977C22.9713 0.613627 23.0432 0.92511 22.9759 1.22168L19.344 17.2217C19.2405 17.6769 18.8353 18 18.3684 18H1.00028C0.696337 17.9999 0.408719 17.8615 0.219027 17.624C0.0293762 17.3864 -0.0425822 17.0748 0.0246912 16.7783L3.65653 0.77832L3.70926 0.614258C3.86239 0.247505 4.22369 0.000124423 4.63211 0H22.0003ZM2.25321 16H17.5706L20.7473 2H5.42996L2.25321 16Z" fill="#6D6D71" fill-opacity="0.5"/>
</g>
</svg>
