<svg preserveAspectRatio="none" width="100%" height="100%" overflow="visible" style="display: block;" viewBox="0 0 60 60" fill="none" xmlns="http://www.w3.org/2000/svg">
<g id="Capcut">
<rect width="60" height="60" rx="16" fill="var(--fill-0, #C9C0BB)" fill-opacity="0.5"/>
<path id="Vector" d="M16.2283 16.2H38.2292C39.1483 16.2682 40.0048 16.6863 40.618 17.3661C41.2313 18.0459 41.5534 18.9343 41.5166 19.8442C43.6405 18.6495 45.8406 17.5854 47.9899 16.4409C47.9899 18.2229 47.9899 19.9998 47.9899 21.7817C42.9529 24.4588 37.8972 27.089 32.823 29.6724C37.8481 32.3729 42.985 34.8475 48 37.5781C47.9695 39.3701 48 41.1671 48 42.9591C45.8507 41.8096 43.6659 40.7304 41.542 39.5358C41.5844 40.4474 41.2661 41.3395 40.6544 42.0234C40.0427 42.7073 39.1858 43.1293 38.2648 43.2H16.5078C14.8361 43.1147 13.2762 41.9351 13.2 40.1883V34.3857C16.2486 32.8799 19.2973 31.2686 22.3459 29.6724C19.2617 28.2067 16.2842 26.5402 13.2 25.0595V19.2318C13.2758 18.4598 13.6181 17.7371 14.1696 17.185C14.721 16.6329 15.448 16.2851 16.2283 16.2ZM16.2283 21.2195C20.0137 23.137 23.7787 25.0896 27.559 27.0171C31.2479 25.0544 34.9926 23.1972 38.6814 21.2245C31.2123 21.2145 23.7279 21.2245 16.2486 21.2095L16.2283 21.2195ZM16.2639 38.1755C23.7686 38.2257 31.2834 38.1755 38.7932 38.2056C35.0688 36.1978 31.2682 34.3656 27.5539 32.3478C23.8245 34.3054 20.0645 36.2229 16.2842 38.1654L16.2639 38.1755Z" fill="var(--fill-0, #6D6D71)"/>
</g>
</svg>
