<svg preserveAspectRatio="none" width="100%" height="100%" overflow="visible" style="display: block;" viewBox="0 0 60 60" fill="none" xmlns="http://www.w3.org/2000/svg">
<g id="Indesign">
<rect width="60" height="60" rx="16" fill="var(--fill-0, #C9C0BB)" fill-opacity="0.5"/>
<g id="Vector">
<path d="M22.3749 19.0783V42.4645C22.3749 42.7095 22.2668 42.8318 22.0505 42.8316H17.6883C17.4958 42.8316 17.3997 42.7093 17.4 42.4645V19.0783C17.4 18.8826 17.5081 18.7847 17.7244 18.7845H22.0865C22.252 18.7606 22.3984 18.9097 22.3749 19.0783Z" fill="#6D6D71"/>
<path d="M35.2811 43.1987C33.6218 43.2244 31.9777 42.8732 30.4683 42.1707C27.2639 40.6604 25.8715 37.3177 25.8719 33.8735C25.8442 30.4378 27.6769 27.1642 30.6667 25.5396C32.7304 24.3754 35.1581 24.0797 37.4801 24.2914V17.0589C37.4801 16.8879 37.5523 16.8019 37.6965 16.8019H42.2388C42.3629 16.7839 42.4729 16.8957 42.4552 17.0222V38.7197C42.4552 39.6149 42.5445 40.507 42.5994 41.3997C42.6082 41.5522 42.5193 41.703 42.383 41.7669C41.2112 42.2646 39.9906 42.6338 38.742 42.8682C37.6003 43.0828 36.4421 43.1934 35.2811 43.1987ZM37.4801 38.6462V28.6236C34.2024 27.7193 30.9906 30.2041 30.991 33.6532C30.9118 37.2654 34.1555 39.6365 37.4801 38.6462Z" fill="#6D6D71"/>
</g>
</g>
</svg>
