<svg preserveAspectRatio="none" width="100%" height="100%" overflow="visible" style="display: block;" viewBox="0 0 18.9997 32.9995" fill="none" xmlns="http://www.w3.org/2000/svg">
<path id="Union" d="M14.7539 0.724469C15.665 -0.182507 17.1054 -0.236824 18.082 0.555524C18.0879 0.560322 18.0939 0.566059 18.0996 0.571149L18.251 0.705915C18.2575 0.711702 18.2643 0.718337 18.2705 0.724469C19.2427 1.69277 19.2428 3.26397 18.2705 4.23228L7.63574 14.8211L6.00195 16.4803L7.52832 18.0711L18.2705 28.7674C19.2423 29.7356 19.2429 31.3068 18.2705 32.2753C17.2992 33.2409 15.7258 33.241 14.7549 32.2753L0.725586 18.3065L0.707031 18.287L0.563477 18.1268L0.545898 18.1073C0.170579 17.6421 -0.00619432 17.0754 0.000976562 16.5213V16.5038L0 16.4598C0.000262349 16.4522 0.00228986 16.444 0.00292969 16.4364C0.00534162 15.8133 0.239128 15.1785 0.725586 14.6932L14.7539 0.724469ZM15.248 0.951032L15.2275 0.970563C15.2453 0.955584 15.264 0.940859 15.2822 0.926618C15.2714 0.935038 15.2587 0.942272 15.248 0.951032Z" fill="var(--fill-0, #51473F)" fill-opacity="0.5"/>
</svg>
