<svg preserveAspectRatio="none" width="100%" height="100%" overflow="visible" style="display: block;" viewBox="0 0 60 60" fill="none" xmlns="http://www.w3.org/2000/svg">
<g id="Illustrator">
<rect width="60" height="60" rx="16" fill="var(--fill-0, #C9C0BB)" fill-opacity="0.5"/>
<g id="Vector">
<path d="M29.1675 37.2624H20.6073L18.8656 42.8533C18.8172 43.061 18.6274 43.2081 18.4209 43.1979H14.0852C13.8379 43.1979 13.7514 43.0575 13.8258 42.7767L21.2372 20.7197C21.3114 20.49 21.3855 20.2283 21.4596 19.9347C21.5566 19.4238 21.6062 18.9045 21.6079 18.3838C21.5866 18.23 21.7208 18.0942 21.8673 18.1157H27.7593C27.932 18.1157 28.0308 18.1796 28.0558 18.3072L36.4679 42.8149C36.542 43.0704 36.4679 43.1981 36.2455 43.1979H31.428C31.259 43.2173 31.0977 43.1005 31.0575 42.9299L29.1675 37.2624ZM21.9413 32.4375H27.7964C26.8344 29.1256 25.7488 25.8572 24.8689 22.5195C23.9196 25.8628 22.8838 29.1927 21.9413 32.4375Z" fill="#6D6D71"/>
<path d="M41.4702 22.1747C41.0922 22.1904 40.7153 22.1235 40.3641 21.9783C40.0129 21.8331 39.6953 21.613 39.432 21.3323C39.1695 21.0394 38.9656 20.6958 38.8321 20.3212C38.6985 19.9466 38.6379 19.5484 38.6538 19.1496C38.6403 18.7546 38.7076 18.3612 38.8513 17.995C38.995 17.6288 39.2118 17.298 39.4876 17.0243C39.7607 16.7534 40.0831 16.5411 40.4361 16.3998C40.7892 16.2585 41.1658 16.1909 41.5443 16.201C42.4337 16.201 43.1316 16.4754 43.6381 17.0243C43.8937 17.3095 44.0924 17.644 44.2227 18.0087C44.3531 18.3734 44.4125 18.7611 44.3977 19.1496C44.4132 19.55 44.3506 19.9495 44.2138 20.3245C44.0769 20.6995 43.8685 21.0422 43.601 21.3323C43.3213 21.6171 42.9877 21.839 42.6209 21.984C42.2542 22.129 41.8624 22.1939 41.4702 22.1747ZM38.9132 42.8148V24.5106C38.9132 24.2809 39.0116 24.1659 39.2096 24.1659H43.7678C43.9652 24.1659 44.0641 24.2808 44.0642 24.5106V42.8148C44.0642 43.0703 43.9654 43.198 43.7678 43.1978H39.2467C39.0244 43.1978 38.9132 43.0701 38.9132 42.8148Z" fill="#6D6D71"/>
</g>
</g>
</svg>
