<svg preserveAspectRatio="none" width="100%" height="100%" overflow="visible" style="display: block;" viewBox="0 0 60 60" fill="none" xmlns="http://www.w3.org/2000/svg">
<g id="Canva">
<rect width="60" height="60" rx="16" fill="var(--fill-0, #C9C0BB)" fill-opacity="0.5"/>
<path id="Vector" d="M42.9518 36.1539C42.7041 36.1539 42.4863 36.3629 42.2595 36.8196C39.6991 42.0114 35.2768 45.685 30.1593 45.685C24.242 45.685 20.5776 40.3434 20.5776 32.9641C20.5776 20.464 27.5423 13.2368 33.6596 13.2368C36.5181 13.2368 38.2638 15.0332 38.2638 17.8918C38.2638 21.2847 36.3363 23.0811 36.3363 24.2776C36.3363 24.8148 36.6704 25.14 37.3329 25.14C39.9947 25.14 43.1188 22.0814 43.1188 17.7606C43.1188 13.571 39.4724 10.4915 33.3552 10.4915C23.2454 10.4915 14.2605 19.8643 14.2605 32.8327C14.2605 42.871 19.9928 49.5045 28.8374 49.5045C38.225 49.5045 43.6531 40.1644 43.6531 37.1328C43.6531 36.4614 43.3098 36.1539 42.9518 36.1539Z" fill="var(--fill-0, #6D6D71)"/>
</g>
</svg>
