<svg preserveAspectRatio="none" width="100%" height="100%" overflow="visible" style="display: block;" viewBox="0 0 12.6666 21.9994" fill="none" xmlns="http://www.w3.org/2000/svg">
<path id="Union" d="M9.83594 0.48319C10.4433 -0.121359 11.4036 -0.158042 12.0547 0.369908C12.0586 0.373057 12.0627 0.377297 12.0664 0.38065L12.168 0.470494C12.1722 0.47432 12.1766 0.47915 12.1807 0.48319C12.8286 1.12866 12.8286 2.17557 12.1807 2.82108L5.09082 9.88065L4.00195 10.9871L5.01953 12.0476L12.1807 19.1785C12.8283 19.8239 12.8286 20.8708 12.1807 21.5164C11.5332 22.1604 10.4843 22.1603 9.83691 21.5164L0.484375 12.2039L0.47168 12.1912L0.375977 12.0848L0.364258 12.0711C0.11416 11.761 -0.00381261 11.3838 0.000976562 11.0144V11.0027L0 10.9734C0.000175358 10.9683 0.0015302 10.9629 0.00195312 10.9578C0.00356158 10.5423 0.159867 10.1193 0.484375 9.79569L9.83594 0.48319ZM10.166 0.63358L10.1523 0.647252C10.1642 0.637229 10.1763 0.627486 10.1885 0.617955C10.1813 0.623542 10.1731 0.627838 10.166 0.63358Z" fill="var(--fill-0, #51473F)" fill-opacity="0.5"/>
</svg>
